<svg width="120" height="30" viewBox="0 0 120 30" fill="none" xmlns="http://www.w3.org/2000/svg">
<path d="M113.176 6.58306C114.185 7.43867 114.481 8.73894 113.794 10.0352C113.13 11.2873 111.712 12.2259 110.128 12.6094C109.824 11.179 110.83 9.61677 112.579 8.86528C112.349 8.91613 112.12 8.97882 111.899 9.05474C111.143 9.31413 110.482 9.70794 109.996 10.1905C109.726 10.4595 109.516 10.7507 109.371 11.0518C109.26 11.4424 109.163 11.8595 109.088 12.294C109.069 12.4064 109.05 12.5182 109.034 12.629C109.654 13.3209 110.136 14.0973 110.46 14.9297C110.517 14.8577 110.576 14.7865 110.636 14.7168C110.834 14.4862 111.041 14.2757 111.243 14.1006C111.446 13.9256 111.639 13.7897 111.81 13.7022C111.872 13.6705 111.93 13.6463 111.985 13.628C112.473 13.4218 113.046 13.3711 113.572 13.4737C113.748 13.9931 113.558 14.572 113 14.9815C112.462 15.3762 111.716 15.5126 111.037 15.3995C111.258 14.7685 111.993 14.3062 112.819 14.2989C112.722 14.2805 112.622 14.2667 112.523 14.2598C112.18 14.2364 111.842 14.2843 111.548 14.3975C111.378 14.4632 111.229 14.5516 111.102 14.6543C110.974 14.7903 110.845 14.9384 110.72 15.0967C110.673 15.1562 110.629 15.2169 110.585 15.2764C110.592 15.2958 110.6 15.3146 110.606 15.334C110.969 16.4695 111.028 17.6554 110.788 18.8077C110.658 19.4373 110.734 20.1017 111.036 20.669C111.168 20.9152 111.287 21.1625 111.396 21.4053C111.645 21.9631 111.814 22.5387 111.9 23.1192C112.035 24.0343 111.18 24.6993 110.261 24.5967L109.465 24.5079C108.965 24.4519 108.618 23.9935 108.563 23.4932C108.555 23.4246 108.546 23.3556 108.534 23.2872C108.451 22.7766 107.837 22.6457 107.532 23.0635C107.156 23.5778 106.886 24.1469 106.729 24.7461C106.545 25.4451 105.957 26.0354 105.236 25.9991C104.575 25.9656 104.042 25.4206 104.146 24.7676C104.317 23.6965 104.741 22.6784 105.396 21.7803C105.813 21.2078 106.317 20.695 106.892 20.253L108.586 18.8204C108.95 18.5132 109.206 18.0868 109.221 17.6114C109.241 16.9784 109.154 16.3434 108.956 15.7266C108.603 14.6234 107.915 13.6246 106.967 12.8252C106.901 12.7698 106.845 12.7067 106.799 12.6377C106.749 12.6052 106.699 12.5714 106.648 12.5391C106.273 12.303 105.898 12.0906 105.534 11.9034C105.221 11.7931 104.875 11.7261 104.511 11.7071C103.854 11.673 103.16 11.7942 102.51 12.0557C102.32 12.1324 102.135 12.2215 101.958 12.3194C103.577 11.8101 105.364 12.2409 106.265 13.3282C105.025 13.9789 103.462 14.1799 102.116 13.754C100.723 13.3128 99.9151 12.315 99.8714 11.1973C100.814 10.6685 101.962 10.4052 103.065 10.4913C103.189 10.4912 103.328 10.5028 103.48 10.5264C103.877 10.5883 104.355 10.731 104.881 10.9424C105.407 11.1539 105.969 11.4305 106.527 11.753C106.586 11.7875 106.645 11.824 106.704 11.8594C106.738 11.7722 106.789 11.6895 106.857 11.6163C107.111 11.3431 107.527 11.2895 107.825 11.5147C108.018 11.6614 108.203 11.8156 108.38 11.9747C108.402 11.8592 108.425 11.7435 108.45 11.629C108.589 11.0025 108.773 10.407 108.991 9.88481C109.208 9.36262 109.453 8.92418 109.708 8.60161C109.81 8.47341 109.913 8.36412 110.015 8.27544C110.802 7.45005 111.946 6.84802 113.176 6.58306ZM106.876 0.00200137C109.808 -0.0384922 112.667 0.826003 114.986 2.45317C117.304 4.08056 118.944 6.37454 119.635 8.95806C120.326 11.5416 120.028 14.2612 118.789 16.6709C117.717 18.7568 115.997 20.5038 113.85 21.7022C113.282 22.0193 112.579 21.7796 112.267 21.209C111.918 20.5718 112.191 19.7779 112.81 19.3975C114.333 18.4614 115.557 17.1643 116.342 15.6377C117.322 13.7313 117.558 11.5792 117.011 9.5352C116.464 7.49135 115.167 5.67617 113.333 4.38872C111.499 3.10138 109.236 2.41721 106.917 2.44927C104.598 2.48141 102.36 3.22796 100.57 4.56548C98.7798 5.90298 97.5446 7.75275 97.0667 9.8106C96.589 11.8685 96.8966 14.0134 97.9397 15.8917C98.9964 17.7939 101.629 17.4335 103.771 17.0469C103.845 17.0335 103.919 17.0209 103.994 17.0098C105.334 16.8125 106.72 17.0014 107.929 17.5411C108.103 17.6189 108.155 17.8367 108.045 17.9922C107.984 18.0788 107.883 18.1279 107.777 18.126C105.814 18.0913 104.013 18.859 102.888 20.1172C102.781 20.2364 102.695 20.372 102.623 20.5147C102.093 21.5629 100.831 22.0429 99.8294 21.4288C98.0118 20.3134 96.5263 18.7893 95.5286 16.9932C94.2098 14.6189 93.8202 11.9081 94.4241 9.30669C95.0281 6.70527 96.5893 4.3666 98.8519 2.67583C101.114 0.985062 103.945 0.0426186 106.876 0.00200137ZM106.832 10.4922C107.125 10.3389 107.433 10.3316 107.676 10.4454C107.592 10.7564 107.371 11.0481 107.06 11.211C106.767 11.3641 106.458 11.3689 106.215 11.2549C106.3 10.9442 106.522 10.6549 106.832 10.4922ZM104.526 6.36431C105.582 6.81906 106.443 7.67869 106.712 8.67388C106.981 9.66932 106.586 10.5437 105.782 11.0196L105.781 11.0186C105.945 10.7263 106.034 10.4078 106.033 10.087C106.033 9.69178 105.9 9.30916 105.653 8.98345C105.497 8.77843 105.298 8.60132 105.069 8.45903C105.667 9.13531 105.884 10.021 105.547 10.8057C105.535 10.8337 105.52 10.8607 105.506 10.8877C104.579 10.4097 103.841 9.61663 103.596 8.71001C103.328 7.71488 103.721 6.84027 104.526 6.36431Z" fill="#CF613C"/>
<path d="M12.72 22.0004C12.352 22.0004 11.672 21.3364 10.68 20.0084C9.688 18.6644 8.488 16.8004 7.08 14.4164L9.288 13.7444C10.616 15.7604 11.72 17.3364 12.6 18.4724C13.496 19.6084 14.288 20.4324 14.976 20.9444C15.664 21.4564 16.336 21.7124 16.992 21.7124C17.024 21.7124 17.04 21.7604 17.04 21.8564C17.04 21.9524 17.024 22.0004 16.992 22.0004H12.72ZM7.56 6.92843C9.016 6.92843 10.144 7.20043 10.944 7.74443C11.744 8.27243 12.144 9.01643 12.144 9.97643C12.144 10.8884 11.88 11.7124 11.352 12.4484C10.84 13.1844 10.168 13.7604 9.336 14.1764C8.504 14.5764 7.632 14.7764 6.72 14.7764C6.096 14.7764 5.656 14.7684 5.4 14.7524V20.0564C5.4 20.5524 5.44 20.9124 5.52 21.1364C5.6 21.3604 5.752 21.5124 5.976 21.5924C6.216 21.6724 6.592 21.7124 7.104 21.7124C7.136 21.7124 7.152 21.7604 7.152 21.8564C7.152 21.9524 7.136 22.0004 7.104 22.0004C6.576 22.0004 6.16 21.9924 5.856 21.9764L4.032 21.9524L2.28 21.9764C1.96 21.9924 1.528 22.0004 0.984 22.0004C0.936 22.0004 0.912 21.9524 0.912 21.8564C0.912 21.7604 0.936 21.7124 0.984 21.7124C1.496 21.7124 1.864 21.6724 2.088 21.5924C2.328 21.5124 2.488 21.3604 2.568 21.1364C2.664 20.8964 2.712 20.5364 2.712 20.0564V8.94443C2.712 8.46443 2.672 8.11243 2.592 7.88843C2.512 7.66443 2.352 7.51243 2.112 7.43243C1.872 7.33643 1.504 7.28843 1.008 7.28843C0.976 7.28843 0.96 7.24043 0.96 7.14443C0.96 7.04843 0.976 7.00043 1.008 7.00043L2.28 7.02443C3.016 7.05643 3.6 7.07243 4.032 7.07243C4.576 7.07243 5.144 7.04843 5.736 7.00043C5.944 6.98443 6.2 6.96843 6.504 6.95243C6.824 6.93643 7.176 6.92843 7.56 6.92843ZM9.408 10.8884C9.408 9.57643 9.216 8.67243 8.832 8.17643C8.448 7.68043 7.896 7.43243 7.176 7.43243C6.536 7.43243 6.08 7.55243 5.808 7.79243C5.536 8.03243 5.4 8.43243 5.4 8.99243V14.0804C5.784 14.1444 6.248 14.1764 6.792 14.1764C7.72 14.1764 8.384 13.9204 8.784 13.4084C9.2 12.8804 9.408 12.0404 9.408 10.8884ZM17.7418 22.0004C17.6938 22.0004 17.6698 21.9524 17.6698 21.8564C17.6698 21.7604 17.6938 21.7124 17.7418 21.7124C18.2538 21.7124 18.6218 21.6724 18.8458 21.5924C19.0858 21.5124 19.2458 21.3604 19.3258 21.1364C19.4058 20.8964 19.4458 20.5364 19.4458 20.0564V8.94443C19.4458 8.46443 19.4058 8.11243 19.3258 7.88843C19.2458 7.66443 19.0858 7.51243 18.8458 7.43243C18.6058 7.33643 18.2378 7.28843 17.7418 7.28843C17.6938 7.28843 17.6698 7.24043 17.6698 7.14443C17.6698 7.04843 17.6938 7.00043 17.7418 7.00043H27.9178C28.0778 7.00043 28.1578 7.07243 28.1578 7.21643L28.2058 10.4084C28.2058 10.4404 28.1578 10.4644 28.0618 10.4804C27.9818 10.4964 27.9338 10.4804 27.9178 10.4324C27.6618 9.50443 27.2298 8.81643 26.6218 8.36843C26.0138 7.92043 25.2138 7.69643 24.2218 7.69643H23.5018C23.0218 7.69643 22.6698 7.80043 22.4458 8.00843C22.2218 8.21643 22.1098 8.53643 22.1098 8.96843V19.9604C22.1098 20.4244 22.1978 20.7684 22.3738 20.9924C22.5498 21.2164 22.8298 21.3284 23.2138 21.3284H24.0058C25.2538 21.3284 26.2538 21.0724 27.0058 20.5604C27.7578 20.0484 28.3098 19.2564 28.6618 18.1844C28.6618 18.1524 28.6938 18.1364 28.7578 18.1364C28.8058 18.1364 28.8458 18.1524 28.8778 18.1844C28.9258 18.2004 28.9498 18.2164 28.9498 18.2324C28.7898 19.4804 28.7098 20.6164 28.7098 21.6404C28.7098 21.7684 28.6858 21.8644 28.6378 21.9284C28.5898 21.9764 28.4938 22.0004 28.3498 22.0004H17.7418ZM27.0058 16.6484C27.0058 15.9924 26.7498 15.4804 26.2378 15.1124C25.7418 14.7284 25.0218 14.5364 24.0778 14.5364H20.8378V13.8644H24.1018C25.0298 13.8644 25.7418 13.7044 26.2378 13.3844C26.7338 13.0644 26.9818 12.6164 26.9818 12.0404C26.9818 11.9924 27.0218 11.9684 27.1018 11.9684C27.1978 11.9684 27.2458 11.9924 27.2458 12.0404L27.2218 14.2004L27.2458 15.3524C27.2778 15.8964 27.2938 16.3284 27.2938 16.6484C27.2938 16.6804 27.2458 16.6964 27.1498 16.6964C27.0538 16.6964 27.0058 16.6804 27.0058 16.6484ZM35.184 19.9604C35.184 20.4724 35.24 20.8484 35.352 21.0884C35.464 21.3124 35.672 21.4724 35.976 21.5684C36.296 21.6644 36.8 21.7124 37.488 21.7124C37.536 21.7124 37.56 21.7604 37.56 21.8564C37.56 21.9524 37.536 22.0004 37.488 22.0004C36.832 22.0004 36.32 21.9924 35.952 21.9764L33.864 21.9524L32.112 21.9764C31.792 21.9924 31.36 22.0004 30.816 22.0004C30.768 22.0004 30.744 21.9524 30.744 21.8564C30.744 21.7604 30.768 21.7124 30.816 21.7124C31.328 21.7124 31.696 21.6724 31.92 21.5924C32.16 21.5124 32.32 21.3604 32.4 21.1364C32.48 20.8964 32.52 20.5364 32.52 20.0564V8.94443C32.52 8.46443 32.48 8.11243 32.4 7.88843C32.32 7.66443 32.16 7.51243 31.92 7.43243C31.68 7.33643 31.312 7.28843 30.816 7.28843C30.768 7.28843 30.744 7.24043 30.744 7.14443C30.744 7.04843 30.768 7.00043 30.816 7.00043L32.088 7.02443C32.824 7.05643 33.408 7.07243 33.84 7.07243C34.224 7.07243 34.68 7.04843 35.208 7.00043C35.416 6.98443 35.68 6.96843 36 6.95243C36.32 6.93643 36.688 6.92843 37.104 6.92843C38.736 6.92843 40.024 7.27243 40.968 7.96043C41.912 8.63243 42.384 9.68043 42.384 11.1044C42.384 12.0964 42.128 12.9364 41.616 13.6244C41.104 14.3124 40.44 14.8324 39.624 15.1844C38.824 15.5364 38 15.7124 37.152 15.7124C36.72 15.7124 36.344 15.6724 36.024 15.5924C35.992 15.5924 35.976 15.5524 35.976 15.4724C35.976 15.4244 35.984 15.3764 36 15.3284C36.032 15.2804 36.064 15.2644 36.096 15.2804C36.336 15.3444 36.608 15.3764 36.912 15.3764C37.648 15.3764 38.256 15.0324 38.736 14.3444C39.232 13.6564 39.48 12.6804 39.48 11.4164C39.48 10.1524 39.208 9.17643 38.664 8.48843C38.136 7.80043 37.36 7.45643 36.336 7.45643C35.888 7.45643 35.584 7.56043 35.424 7.76843C35.264 7.97643 35.184 8.38443 35.184 8.99243V19.9604ZM56.9696 10.0724C56.9696 9.20843 56.7696 8.52843 56.3696 8.03243C55.9856 7.53643 55.4416 7.28843 54.7376 7.28843C54.7056 7.28843 54.6896 7.24043 54.6896 7.14443C54.6896 7.04843 54.7056 7.00043 54.7376 7.00043L55.8896 7.02443C56.4976 7.05643 56.9856 7.07243 57.3536 7.07243C57.6576 7.07243 58.0976 7.05643 58.6736 7.02443L59.7776 7.00043C59.8096 7.00043 59.8256 7.04843 59.8256 7.14443C59.8256 7.24043 59.8096 7.28843 59.7776 7.28843C59.1536 7.28843 58.6656 7.53643 58.3136 8.03243C57.9616 8.52843 57.7856 9.20843 57.7856 10.0724V16.7444C57.7856 17.8644 57.5376 18.8484 57.0416 19.6964C56.5456 20.5444 55.8416 21.2004 54.9296 21.6644C54.0336 22.1124 52.9936 22.3364 51.8096 22.3364C50.6256 22.3364 49.5776 22.1124 48.6656 21.6644C47.7536 21.2164 47.0336 20.5684 46.5056 19.7204C45.9936 18.8564 45.7376 17.8484 45.7376 16.6964V8.94443C45.7376 8.46443 45.6896 8.11243 45.5936 7.88843C45.5136 7.66443 45.3536 7.51243 45.1136 7.43243C44.8896 7.33643 44.5296 7.28843 44.0336 7.28843C43.9856 7.28843 43.9616 7.24043 43.9616 7.14443C43.9616 7.04843 43.9856 7.00043 44.0336 7.00043L45.3056 7.02443C46.0416 7.05643 46.6256 7.07243 47.0576 7.07243C47.5376 7.07243 48.1456 7.05643 48.8816 7.02443L50.1056 7.00043C50.1536 7.00043 50.1776 7.04843 50.1776 7.14443C50.1776 7.24043 50.1536 7.28843 50.1056 7.28843C49.6096 7.28843 49.2416 7.33643 49.0016 7.43243C48.7776 7.52843 48.6176 7.69643 48.5216 7.93643C48.4416 8.16043 48.4016 8.51243 48.4016 8.99243V15.8564C48.4016 17.7604 48.7776 19.1684 49.5296 20.0804C50.2816 20.9924 51.3456 21.4484 52.7216 21.4484C54.0496 21.4484 55.0896 21.0484 55.8416 20.2484C56.5936 19.4324 56.9696 18.2724 56.9696 16.7684V10.0724ZM63.1886 7.55243L63.9086 7.60043V18.9524C63.9086 19.8004 64.0846 20.4724 64.4366 20.9684C64.7886 21.4644 65.2766 21.7124 65.9006 21.7124C65.9326 21.7124 65.9486 21.7604 65.9486 21.8564C65.9486 21.9524 65.9326 22.0004 65.9006 22.0004C65.4526 22.0004 65.1086 21.9924 64.8686 21.9764L63.5726 21.9524L62.0846 21.9764C61.8126 21.9924 61.4206 22.0004 60.9086 22.0004C60.8606 22.0004 60.8366 21.9524 60.8366 21.8564C60.8366 21.7604 60.8606 21.7124 60.9086 21.7124C61.6126 21.7124 62.1646 21.4644 62.5646 20.9684C62.9806 20.4724 63.1886 19.8004 63.1886 18.9524V7.55243ZM75.4286 22.3604C75.4286 22.4084 75.3886 22.4404 75.3086 22.4564C75.2446 22.4724 75.1966 22.4644 75.1646 22.4324L63.3326 8.96843C62.7726 8.32843 62.2926 7.88843 61.8926 7.64843C61.4926 7.40843 61.0846 7.28843 60.6686 7.28843C60.6366 7.28843 60.6206 7.24043 60.6206 7.14443C60.6206 7.04843 60.6366 7.00043 60.6686 7.00043L61.6766 7.02443C61.8846 7.04043 62.1886 7.04843 62.5886 7.04843L64.4126 7.02443C64.6366 7.00843 64.9086 7.00043 65.2286 7.00043C65.3566 7.00043 65.4526 7.03243 65.5166 7.09643C65.5806 7.16043 65.6926 7.29643 65.8526 7.50443C66.1246 7.87243 66.3166 8.12043 66.4286 8.24843L75.2366 18.4004L75.4286 22.3604ZM75.4286 22.3604L74.7326 21.6404V10.0724C74.7326 9.20843 74.5566 8.52843 74.2046 8.03243C73.8526 7.53643 73.3646 7.28843 72.7406 7.28843C72.7086 7.28843 72.6926 7.24043 72.6926 7.14443C72.6926 7.04843 72.7086 7.00043 72.7406 7.00043L73.7726 7.02443C74.2846 7.05643 74.7166 7.07243 75.0686 7.07243C75.3886 7.07243 75.8366 7.05643 76.4126 7.02443L77.4926 7.00043C77.5246 7.00043 77.5406 7.04843 77.5406 7.14443C77.5406 7.24043 77.5246 7.28843 77.4926 7.28843C76.8526 7.28843 76.3486 7.54443 75.9806 8.05643C75.6126 8.55243 75.4286 9.22443 75.4286 10.0724V22.3604ZM83.1171 7.55243C81.2131 7.55243 79.8451 8.79243 79.0131 11.2724C78.9971 11.3204 78.9491 11.3444 78.8691 11.3444C78.7891 11.3284 78.7491 11.2964 78.7491 11.2484C78.8131 10.6084 78.8851 9.78443 78.9651 8.77643C79.0451 7.75243 79.0851 6.98443 79.0851 6.47243C79.0851 6.39243 79.1251 6.35243 79.2051 6.35243C79.3011 6.35243 79.3491 6.39243 79.3491 6.47243C79.3491 6.82443 79.8051 7.00043 80.7171 7.00043C82.0931 7.04843 83.7011 7.07243 85.5411 7.07243C86.4851 7.07243 87.4851 7.05643 88.5411 7.02443L90.1731 7.00043C90.7811 7.00043 91.2211 6.96043 91.4931 6.88043C91.7811 6.80043 91.9651 6.64043 92.0451 6.40043C92.0611 6.33643 92.1091 6.30443 92.1891 6.30443C92.2851 6.30443 92.3331 6.33643 92.3331 6.40043C92.2851 6.88043 92.2291 7.64843 92.1651 8.70443C92.1171 9.76043 92.0931 10.6084 92.0931 11.2484C92.0931 11.2964 92.0531 11.3204 91.9731 11.3204C91.8931 11.3204 91.8451 11.2964 91.8291 11.2484C91.5891 10.0164 91.1411 9.09643 90.4851 8.48843C89.8291 7.86443 89.0211 7.55243 88.0611 7.55243C87.5971 7.55243 87.2851 7.65643 87.1251 7.86443C86.9811 8.05643 86.9091 8.43243 86.9091 8.99243V20.0564C86.9091 20.5524 86.9571 20.9124 87.0531 21.1364C87.1491 21.3604 87.3331 21.5124 87.6051 21.5924C87.8771 21.6724 88.3091 21.7124 88.9011 21.7124C88.9491 21.7124 88.9731 21.7604 88.9731 21.8564C88.9731 21.9524 88.9491 22.0004 88.9011 22.0004C88.3251 22.0004 87.8691 21.9924 87.5331 21.9764L85.5411 21.9524L83.5971 21.9764C83.2611 21.9924 82.7971 22.0004 82.2051 22.0004C82.1571 22.0004 82.1331 21.9524 82.1331 21.8564C82.1331 21.7604 82.1571 21.7124 82.2051 21.7124C82.7811 21.7124 83.2051 21.6724 83.4771 21.5924C83.7651 21.5124 83.9571 21.3604 84.0531 21.1364C84.1651 20.8964 84.2211 20.5364 84.2211 20.0564V8.94443C84.2211 8.40043 84.1491 8.03243 84.0051 7.84043C83.8611 7.64843 83.5651 7.55243 83.1171 7.55243Z" fill="#CF613C"/>
</svg>
