<svg width="90" height="94" viewBox="0 0 90 94" fill="none" xmlns="http://www.w3.org/2000/svg">
<path d="M65.8954 23.5488C69.3563 26.6105 70.3691 31.2631 68.0136 35.9024C65.7374 40.3845 60.8744 43.7544 55.4413 45.126C54.3897 39.9989 57.8531 34.3966 63.87 31.71C63.072 31.8924 62.284 32.1202 61.5175 32.3945C58.9239 33.3229 56.6636 34.7345 54.998 36.4619C54.0648 37.4299 53.3402 38.476 52.8437 39.5596C52.4631 40.9522 52.1355 42.4365 51.8788 43.9844C51.8125 44.384 51.7526 44.7811 51.6981 45.1748C53.8239 47.6513 55.481 50.4313 56.5917 53.4111C56.7845 53.156 56.9819 52.9032 57.1845 52.6563C57.8625 51.83 58.5729 51.0771 59.2675 50.4502C59.9622 49.8232 60.6253 49.3366 61.2099 49.0234C61.4406 48.8999 61.6572 48.8049 61.8573 48.7383C63.5248 48.0161 65.4709 47.8368 67.2577 48.2022C67.865 50.0615 67.205 52.1319 65.2919 53.5977C63.4428 55.0138 60.8774 55.5137 58.5448 55.1045C59.2974 52.8397 61.8317 51.1821 64.6688 51.1563C64.3347 51.0898 63.9939 51.0441 63.6513 51.0195C62.4769 50.9354 61.319 51.1053 60.3124 51.5108C59.7471 51.7385 59.2424 52.0353 58.8153 52.3887C58.3636 52.8859 57.9108 53.4297 57.4706 54.0117C57.3127 54.2205 57.161 54.4301 57.0146 54.6387C57.0382 54.7134 57.0628 54.7883 57.0858 54.8633C58.5942 59.7815 58.5723 64.9626 57.0575 69.877C56.8751 70.4692 56.9522 71.1133 57.2743 71.6426C58.2625 73.2663 59.0963 74.9509 59.7958 76.584C61.1928 79.8457 61.85 83.2719 61.7401 86.6797C61.7044 87.7804 60.7032 88.5622 59.6093 88.4346L52.0497 87.5527C50.9498 87.4244 50.1773 86.4236 50.1571 85.3164C50.14 84.3679 50.0311 83.4189 49.831 82.4805C49.5377 81.1071 47.869 80.7577 47.0155 81.8731C46.8541 82.084 46.697 82.2989 46.5448 82.5166C44.7491 85.0862 43.656 88.0353 43.3378 91.1309C43.2195 92.2795 42.2654 93.2088 41.1122 93.1484L36.5185 92.9072C35.4656 92.8517 34.6279 91.987 34.6913 90.9346C34.9747 86.2553 36.527 81.7827 39.2216 77.9268C40.6754 75.8465 42.4345 73.986 44.4423 72.3877L51.5526 66.1143C51.9017 65.8063 52.1365 65.3859 52.1933 64.9238C52.5479 62.032 52.2963 59.0961 51.4286 56.2666C50.1349 52.0489 47.5311 48.2596 43.9286 45.3096C43.7684 45.1784 43.6321 45.027 43.5175 44.8643C43.5159 44.8632 43.5142 44.8624 43.5126 44.8613C42.2349 44.022 40.9608 43.2645 39.7216 42.5977C38.6382 42.1978 37.4456 41.9563 36.1845 41.8877C33.9316 41.7653 31.5525 42.197 29.3231 43.1338C28.6643 43.4107 28.026 43.7279 27.4149 44.082C32.9734 42.2499 39.1152 43.7922 42.206 47.6943C37.9524 50.023 32.5905 50.7358 27.9726 49.2109C23.1925 47.6321 20.4228 44.0563 20.2763 40.0537C23.5049 38.1648 27.4369 37.2301 31.2128 37.5371C31.6434 37.5362 32.1246 37.5776 32.6513 37.6631C34.015 37.8846 35.6549 38.3917 37.4579 39.1484C39.2609 39.9052 41.1853 40.894 43.0985 42.0479C43.2507 42.1396 43.4022 42.2337 43.5536 42.3272C43.5752 42.3002 43.5958 42.2722 43.619 42.2461L44.5683 41.1787C45.2362 40.428 46.3621 40.2838 47.1601 40.8945C47.9619 41.5086 48.7261 42.1558 49.4511 42.833C49.5264 42.4232 49.6059 42.0141 49.6923 41.6074C50.1688 39.3648 50.8013 37.2354 51.5458 35.3662C52.2903 33.4974 53.1292 31.9318 54.0058 30.7774C54.3477 30.3271 54.6926 29.9431 55.036 29.6289C57.7369 26.6627 61.667 24.4991 65.8954 23.5488ZM44.2958 0.00489346C54.3477 -0.140198 64.1531 2.95256 72.1024 8.7754C80.0516 14.5982 85.673 22.805 88.0429 32.0488C90.4127 41.2927 89.3904 51.0247 85.1444 59.6465C81.5044 67.0377 75.6795 73.2372 68.4179 77.5205C66.3781 78.7233 63.808 77.8441 62.7079 75.7471C61.5371 73.5149 62.4839 70.778 64.6073 69.4199C69.847 66.0687 74.057 61.4212 76.7528 55.9473C80.112 49.1263 80.9206 41.4273 79.0458 34.1143C77.171 26.8011 72.7243 20.3078 66.4354 15.7012C60.1467 11.0947 52.3895 8.64801 44.4374 8.76271C36.4852 8.87749 28.8102 11.5472 22.6728 16.333C16.5353 21.119 12.2992 27.7377 10.661 35.1016C9.02302 42.4651 10.0798 50.1368 13.6571 56.8574C15.0318 59.4398 16.7481 61.8226 18.7499 63.9561C20.5476 65.8716 23.5311 65.5771 25.7294 64.1387C28.2643 62.48 31.2317 61.3487 34.414 60.8594C39.0082 60.1532 43.7588 60.8301 47.9052 62.7627C48.5073 63.0433 48.6911 63.7977 48.3173 64.3467C48.0994 64.6664 47.7314 64.8493 47.3446 64.8428C40.5295 64.7272 34.2795 67.5566 30.4423 72.1709C30.2157 72.4434 30.0295 72.7466 29.8749 73.0654L28.581 75.7344C27.4117 78.1458 24.5307 79.2315 22.1991 77.9102C15.0244 73.8441 9.18117 67.9209 5.38955 60.7979C0.867437 52.3025 -0.468284 42.6049 1.60244 33.2969C3.67317 23.9889 9.02725 15.6238 16.7851 9.57423C24.5429 3.52467 34.244 0.149992 44.2958 0.00489346ZM44.1435 37.5361C45.148 36.9872 46.2074 36.9633 47.0399 37.3711C46.7512 38.4846 45.9923 39.5234 44.9257 40.1065C43.9213 40.6553 42.8647 40.6791 42.0321 40.2715C42.3211 39.1585 43.0773 38.119 44.1435 37.5361ZM36.2343 22.7608C39.8574 24.3877 42.8106 27.4712 43.7323 31.0342C44.6538 34.5969 43.3083 37.7302 40.5468 39.4326C40.5448 39.4317 40.5429 39.4306 40.5409 39.4297C41.1077 38.3823 41.4043 37.2393 41.4032 36.0889C41.4017 34.6742 40.9494 33.3046 40.0995 32.1387C39.571 31.4138 38.9028 30.7849 38.1269 30.2793C40.1636 32.6959 40.8887 35.8622 39.7382 38.6602C39.6955 38.7639 39.6487 38.8653 39.6015 38.9658C36.4176 37.2547 33.8897 34.4063 33.0497 31.1592C32.1285 27.5968 33.473 24.4631 36.2343 22.7608Z" fill="#17301A"/>
</svg>
